<?xml version="1.0" standalone="no"?>
<!DOCTYPE svg PUBLIC "-//W3C//DTD SVG 20010904//EN"
 "http://www.w3.org/TR/2001/REC-SVG-20010904/DTD/svg10.dtd">
<svg version="1.0" xmlns="http://www.w3.org/2000/svg"
 width="512.000000pt" height="512.000000pt" viewBox="0 0 512.000000 512.000000"
 preserveAspectRatio="xMidYMid meet">
<metadata>
Created by potrace 1.14, written by Peter Selinger 2001-2017
</metadata>
<g transform="translate(0.000000,512.000000) scale(0.100000,-0.100000)"
fill="#000000" stroke="none">
<path d="M0 2560 l0 -2560 2560 0 2560 0 0 2560 0 2560 -2560 0 -2560 0 0
-2560z m1452 1703 c31 -11 83 -35 115 -54 65 -39 187 -155 198 -188 11 -35 -3
-69 -35 -86 -49 -25 -71 -19 -130 39 -204 202 -456 192 -695 -27 -255 -232
-362 -614 -240 -859 58 -114 100 -147 216 -168 176 -33 571 69 725 186 42 32
93 32 124 -1 20 -21 22 -34 21 -97 0 -40 -3 -95 -6 -123 -22 -203 -57 -967
-60 -1268 -1 -220 -6 -352 -12 -358 -18 -18 -75 -6 -95 21 -40 54 -43 122 -43
878 0 509 -3 721 -11 718 -153 -59 -367 -106 -514 -112 -257 -12 -387 55 -484
251 -58 118 -71 180 -71 335 0 167 22 257 100 415 131 266 364 463 610 515 65
14 223 4 287 -17z m2571 -23 c92 -29 181 -86 258 -168 68 -71 79 -95 63 -137
-8 -19 -55 -45 -85 -45 -13 0 -49 26 -89 64 -158 149 -319 172 -518 74 -184
-90 -356 -309 -428 -543 -28 -93 -27 -300 4 -380 53 -142 115 -196 248 -217
162 -25 516 65 683 172 74 48 116 52 151 15 23 -24 23 -25 17 -217 -3 -106
-13 -368 -22 -583 -21 -503 -24 -1223 -6 -1357 16 -115 10 -131 -48 -126 -110
9 -125 163 -126 1260 0 439 -1 798 -3 798 -1 0 -54 -16 -117 -35 -402 -122
-665 -109 -810 41 -61 63 -130 205 -151 313 -23 120 -15 285 21 406 55 185
185 386 326 502 205 170 427 227 632 163z m-1499 -115 c250 -53 412 -254 393
-485 -14 -167 -139 -377 -362 -608 l-100 -104 70 -136 c288 -564 605 -963 899
-1133 76 -44 89 -64 58 -89 -25 -21 -31 -20 -127 25 -209 99 -482 352 -713
660 -165 221 -379 566 -411 663 -20 60 -5 88 82 144 162 107 326 275 389 400
104 205 58 401 -115 489 -66 34 -135 49 -230 49 -145 0 -255 -48 -297 -129
-22 -45 -43 -56 -73 -39 -30 15 -37 29 -30 58 40 174 315 288 567 235z m-375
-422 c18 -22 20 -35 16 -87 -3 -34 -10 -241 -16 -461 -11 -437 -10 -435 -70
-435 -56 0 -56 3 -63 507 -6 455 -6 463 14 483 31 31 93 27 119 -7z m1941
-1278 l0 -55 -62 0 c-139 0 -622 -49 -943 -96 -93 -13 -177 -24 -187 -24 -10
0 -34 25 -58 60 l-40 59 32 6 c120 20 596 69 823 85 229 15 250 16 348 18 l87
2 0 -55z m390 49 c39 -8 58 -41 41 -73 -11 -19 -20 -21 -96 -21 l-85 0 0 50 0
50 54 0 c29 0 68 -3 86 -6z m-1894 -195 c25 -33 42 -64 38 -69 -5 -4 -83 -20
-174 -35 -91 -14 -283 -49 -427 -76 -144 -27 -269 -49 -277 -49 -13 0 -16 14
-16 79 0 74 2 79 23 84 27 6 412 68 627 101 85 13 156 24 157 25 1 1 23 -26
49 -60z m-1086 -194 c0 -60 -4 -87 -12 -89 -53 -17 -504 -106 -520 -104 -54 8
-85 122 -42 157 13 10 97 31 220 54 109 21 231 44 269 52 39 7 73 14 78 14 4
1 7 -37 7 -84z m1198 -974 c4 -49 -7 -52 -30 -11 -15 26 -23 30 -58 30 l-40 0
0 -144 c0 -149 2 -158 45 -169 11 -2 -18 -5 -65 -4 -47 0 -75 2 -62 4 37 7 43
34 40 175 l-3 133 -38 3 c-33 3 -39 -1 -55 -27 -20 -37 -32 -40 -32 -8 1 63
-2 62 153 60 l142 -2 3 -40z m-1704 -89 c29 -68 57 -123 61 -124 5 0 35 56 66
124 l57 123 46 3 c28 2 46 -1 46 -7 0 -6 -9 -11 -19 -11 -27 0 -31 -18 -31
-135 0 -128 6 -160 34 -173 16 -8 5 -11 -54 -11 -67 -1 -72 1 -50 12 24 12 25
16 28 137 2 79 -1 121 -7 115 -5 -6 -34 -66 -64 -135 -31 -68 -60 -126 -64
-127 -5 -2 -34 57 -64 131 -30 74 -57 132 -61 129 -5 -2 -8 -58 -8 -123 l0
-118 28 -10 c23 -9 16 -10 -43 -11 -68 0 -69 0 -42 15 16 9 27 23 28 37 0 12
4 71 8 131 10 121 8 136 -20 136 -10 0 -19 5 -19 11 0 6 18 9 46 7 l46 -3 52
-123z m466 118 c0 -5 -9 -10 -19 -10 -27 0 -31 -18 -31 -154 0 -123 6 -147 40
-159 8 -3 -19 -6 -60 -6 -67 -1 -72 1 -50 12 24 12 25 16 28 137 3 146 -1 170
-28 170 -11 0 -20 5 -20 10 0 6 30 10 70 10 40 0 70 -4 70 -10z m230 -121
l111 -131 -3 118 c-3 115 -4 119 -25 122 -47 7 -21 22 37 22 58 0 80 -12 40
-23 -19 -5 -20 -14 -20 -166 0 -101 -4 -161 -10 -161 -6 0 -61 61 -123 136
l-112 137 -3 -89 c-4 -121 2 -150 36 -162 22 -9 15 -11 -43 -11 -57 0 -66 2
-50 11 33 18 35 28 35 151 0 125 -8 157 -40 157 -11 0 -20 5 -20 10 0 6 18 10
39 10 39 0 43 -4 151 -131z m370 121 c0 -5 -7 -10 -15 -10 -27 0 -35 -38 -35
-157 0 -123 2 -133 35 -151 16 -9 6 -11 -55 -12 -67 0 -72 2 -50 13 25 13 25
13 25 157 0 143 0 145 -22 148 -51 7 -19 22 47 22 40 0 70 -4 70 -10z m255
-122 c59 -164 70 -187 98 -198 16 -6 3 -9 -47 -9 -62 -1 -68 1 -51 13 18 13
18 15 1 60 l-18 46 -57 0 -58 0 -11 -39 c-16 -52 -15 -56 11 -69 18 -9 11 -11
-43 -11 -59 0 -63 1 -41 13 17 10 38 49 77 147 70 174 72 179 82 179 5 0 31
-60 57 -132z m565 123 c0 -5 -9 -11 -20 -14 -19 -5 -20 -14 -20 -122 0 -115 0
-117 29 -146 53 -52 139 -34 156 33 3 13 5 70 3 128 -3 100 -4 105 -25 108
-47 7 -21 22 37 22 58 0 80 -12 40 -23 -18 -5 -20 -14 -20 -99 -1 -115 -11
-164 -43 -196 -50 -49 -169 -37 -207 20 -10 16 -16 60 -18 147 -4 111 -6 124
-23 128 -40 11 -16 23 46 23 36 0 65 -4 65 -9z m486 -24 c35 -41 32 -83 -10
-121 l-33 -31 38 -57 c21 -31 50 -65 64 -76 34 -27 32 -35 -7 -27 -42 9 -62
27 -104 93 -26 40 -40 52 -59 52 -24 0 -25 -3 -25 -59 0 -56 2 -60 28 -69 22
-9 14 -10 -48 -11 -61 0 -71 2 -52 11 21 11 22 16 22 155 0 136 -1 145 -20
150 -11 3 -20 10 -20 15 0 7 38 9 101 6 96 -4 103 -5 125 -31z m344 -7 c0 -22
-4 -40 -10 -40 -5 0 -10 6 -10 13 0 28 -36 48 -81 45 l-44 -3 -3 -67 -3 -68
38 0 c43 0 55 6 71 35 9 17 11 10 11 -40 0 -57 -1 -59 -16 -37 -12 17 -25 22
-60 22 l-44 0 3 -67 3 -68 62 -3 c59 -3 62 -2 79 28 21 35 38 40 29 8 -4 -13
-9 -31 -11 -40 -5 -16 -20 -18 -137 -17 -101 0 -125 3 -104 11 l27 10 0 145
c0 136 -1 145 -20 150 -51 13 -9 23 100 23 l120 0 0 -40z m256 26 c3 -8 4 -27
2 -43 l-3 -28 -17 31 c-32 60 -118 49 -118 -14 0 -32 24 -58 87 -92 74 -41 90
-111 36 -162 -20 -19 -35 -23 -88 -23 -35 0 -66 3 -70 7 -4 3 -9 26 -11 50 -4
38 -3 41 8 24 44 -66 97 -85 132 -47 29 32 17 71 -34 107 -83 59 -100 80 -100
119 0 57 37 85 112 85 41 0 60 -4 64 -14z"/>
<path d="M2221 1025 c-12 -31 -21 -60 -21 -65 0 -6 21 -10 46 -10 33 0 45 4
42 13 -3 6 -13 36 -22 65 -10 28 -19 52 -21 52 -2 0 -13 -25 -24 -55z"/>
<path d="M3237 1123 c-4 -3 -7 -40 -7 -81 l0 -75 38 6 c71 12 99 94 46 136
-26 21 -64 28 -77 14z"/>
</g>
</svg>
